<svg width="20" height="14" viewBox="0 0 20 14" fill="none" xmlns="http://www.w3.org/2000/svg">
<path d="M12.9875 13C13.1378 13 13.2881 13 13.2881 12.85L18.8497 7.45C19 7.15 19 6.85 18.8497 6.55L13.4384 1.15C13.2881 1 13.1378 1 12.9875 1C12.8371 1 12.6868 1 12.6868 1.15C12.5365 1.3 12.5365 1.45 12.5365 1.45C12.5365 1.6 12.5365 1.75 12.6868 1.9L17.1962 6.4H1.56366C1.26303 6.4 0.962402 6.7 0.962402 7C0.962402 7.3 1.26303 7.6 1.56366 7.6H17.1962L12.6868 12.1C12.5365 12.25 12.5365 12.4 12.5365 12.55C12.5365 12.7 12.5365 12.85 12.6868 13C12.6868 13 12.8371 13 12.9875 13Z" fill="white" stroke="white" stroke-linejoin="round"/>
</svg>
