<svg width="13" height="12" viewBox="0 0 13 12" fill="none" xmlns="http://www.w3.org/2000/svg">
<g id="Frame 61">
<path id="Vector" d="M4.30693 6.6C4.30693 6.42857 4.21903 6.34286 4.04324 6.34286H3.07638C2.90058 6.34286 2.81269 6.42857 2.81269 6.6V7.54286C2.81269 7.71429 2.90058 7.8 3.07638 7.8H4.04324C4.21903 7.8 4.30693 7.71429 4.30693 7.54286V6.6ZM6.76803 6.6C6.76803 6.42857 6.68013 6.34286 6.50434 6.34286H5.53748C5.36168 6.34286 5.27379 6.42857 5.27379 6.6V7.54286C5.27379 7.71429 5.36168 7.88571 5.53748 7.88571H6.50434C6.68013 7.88571 6.76803 7.8 6.76803 7.62857V6.6ZM9.22913 6.6C9.22913 6.42857 9.14123 6.34286 8.96544 6.34286H7.99858C7.82278 6.34286 7.73489 6.42857 7.73489 6.6V7.54286C7.73489 7.71429 7.82278 7.8 7.99858 7.8H8.96544C9.14123 7.8 9.22913 7.71429 9.22913 7.54286V6.6ZM4.30693 9C4.30693 8.82857 4.21903 8.74286 4.04324 8.74286H3.07638C2.90058 8.74286 2.81269 8.82857 2.81269 9V9.94286C2.81269 10.1143 2.90058 10.2 3.07638 10.2H4.04324C4.21903 10.2 4.30693 10.1143 4.30693 9.94286V9ZM6.76803 9C6.76803 8.82857 6.68013 8.74286 6.50434 8.74286H5.53748C5.36168 8.74286 5.27379 8.82857 5.27379 9V9.94286C5.27379 10.1143 5.36168 10.2 5.53748 10.2H6.50434C6.68013 10.2 6.76803 10.1143 6.76803 9.94286V9ZM9.22913 9C9.22913 8.82857 9.14123 8.74286 8.96544 8.74286H7.99858C7.82278 8.74286 7.73489 8.82857 7.73489 9V9.94286C7.73489 10.1143 7.82278 10.2 7.99858 10.2H8.96544C9.14123 10.2 9.22913 10.1143 9.22913 9.94286V9ZM10.9871 1.37143V2.82857C10.9871 3.51429 10.4597 4.02857 9.75651 4.02857H8.96544C8.26227 3.94286 7.73489 3.42857 7.73489 2.82857V1.37143H4.30693V2.82857C4.30693 3.51429 3.77955 4.02857 3.07638 4.02857H2.28531C1.58214 3.94286 1.05476 3.42857 1.05476 2.82857V1.37143C0.439482 1.37143 0 1.8 0 2.4V10.8857C0 11.4857 0.527379 12 1.14265 12H10.9871C11.6023 12 12.1297 11.4857 12.1297 10.8857V2.4C12.0418 1.8 11.5144 1.37143 10.9871 1.37143ZM10.6355 10.3714C10.6355 10.6286 10.4597 10.8 10.196 10.8H1.84583C1.58214 10.8 1.40634 10.6286 1.40634 10.3714V6C1.40634 5.74286 1.58214 5.57143 1.84583 5.57143H10.1081C10.3718 5.57143 10.5476 5.74286 10.5476 6L10.6355 10.3714ZM2.28531 3.17143H3.07638C3.34006 3.17143 3.51586 3 3.51586 2.74286V0.428571C3.42796 0.171429 3.25217 0 3.07638 0H2.28531C2.02162 0 1.84583 0.171429 1.84583 0.428571V2.82857C1.84583 3 2.02162 3.17143 2.28531 3.17143ZM8.96544 3.17143H9.75651C10.0202 3.17143 10.196 3 10.196 2.74286V0.428571C10.196 0.171429 10.0202 0 9.75651 0H8.96544C8.70175 0 8.52595 0.171429 8.52595 0.428571V2.82857C8.52595 3 8.70175 3.17143 8.96544 3.17143Z" fill="#4B6AC0"/>
</g>
</svg>
