<svg width="18" height="13" viewBox="0 0 18 13" fill="none" xmlns="http://www.w3.org/2000/svg">
<g id="Frame 57">
<g id="Group 662">
<path id="Rectangle 200 (Stroke)" fill-rule="evenodd" clip-rule="evenodd" d="M1.21875 1.21875V11.7813H16.7812V1.21875H1.21875ZM0.8125 0C0.363769 0 0 0.363769 0 0.8125V12.1875C0 12.6362 0.363768 13 0.812499 13H17.1875C17.6362 13 18 12.6362 18 12.1875V0.8125C18 0.363769 17.6362 0 17.1875 0H0.8125Z" fill="#4B6AC0"/>
<path id="Rectangle 201" d="M0 3.00006H18V5.00006H0V3.00006Z" fill="#4B6AC0"/>
<path id="Rectangle 202" d="M2.99976 9.49988C2.99976 9.22374 3.22361 8.99988 3.49976 8.99988H6.49976C6.7759 8.99988 6.99976 9.22374 6.99976 9.49988C6.99976 9.77602 6.7759 9.99988 6.49976 9.99988H3.49976C3.22361 9.99988 2.99976 9.77602 2.99976 9.49988Z" fill="#4B6AC0"/>
<path id="Rectangle 203" d="M2.99976 7.5C2.99976 7.22386 3.22361 7 3.49976 7H9.49976C9.7759 7 9.99976 7.22386 9.99976 7.5C9.99976 7.77614 9.7759 8 9.49976 8H3.49976C3.22361 8 2.99976 7.77614 2.99976 7.5Z" fill="#4B6AC0"/>
</g>
</g>
</svg>
