<svg width="14" height="14" viewBox="0 0 14 14" fill="none" xmlns="http://www.w3.org/2000/svg">
<g id="Frame 67">
<path id="Vector" d="M13.3 14C13.1444 14 12.9111 13.9222 12.8333 13.7667L7 7.93333L1.16667 13.7667C1.01111 13.9222 0.855556 14 0.7 14C0.544444 14 0.311111 13.9222 0.233333 13.7667C0.0777778 13.6889 0 13.5333 0 13.3C0 13.0667 0.0777778 12.9111 0.233333 12.8333L6.06667 7L0.233333 1.16667C0.0777778 1.01111 0 0.855556 0 0.7C0 0.544444 0.0777778 0.311111 0.233333 0.233333C0.311111 0.0777778 0.466667 0 0.7 0C0.855556 0 1.08889 0.0777778 1.16667 0.233333L7 6.06667L12.8333 0.233333C12.9889 0.0777778 13.1444 0 13.3 0C13.4556 0 13.6889 0.0777778 13.7667 0.233333C13.9222 0.311111 14 0.466667 14 0.7C14 0.933333 13.9222 1.08889 13.7667 1.16667L7.93333 7L13.7667 12.8333C13.9222 12.9889 14 13.1444 14 13.3C14 13.4556 13.9222 13.6889 13.7667 13.7667C13.6889 13.9222 13.5333 14 13.3 14Z" fill="#1C1939"/>
</g>
</svg>
