<svg width="16" height="17" viewBox="0 0 16 17" fill="none" xmlns="http://www.w3.org/2000/svg">
<g id="Frame 62">
<path id="coolicon" d="M9.50131 16.4917H6.49983C6.11237 16.4917 5.77712 16.222 5.69421 15.8435L5.3586 14.29C4.91089 14.0939 4.48638 13.8486 4.09287 13.5586L2.57811 14.041C2.20869 14.1588 1.80711 14.0033 1.61334 13.6675L0.109303 11.0692C-0.0823404 10.7332 -0.0163154 10.3093 0.268447 10.0476L1.44348 8.97559C1.39004 8.49 1.39004 8.00002 1.44348 7.51443L0.268447 6.44494C-0.0167349 6.18303 -0.082786 5.75866 0.109303 5.42246L1.61004 2.82255C1.80381 2.48669 2.20539 2.33121 2.57481 2.44901L4.08957 2.93139C4.29082 2.78227 4.50032 2.64462 4.71708 2.5191C4.92515 2.40176 5.13929 2.29551 5.3586 2.20081L5.69503 0.648947C5.77755 0.270438 6.11243 0.000407668 6.49983 0H9.50131C9.88871 0.000407668 10.2236 0.270438 10.3061 0.648947L10.6458 2.20164C10.8774 2.30349 11.1028 2.41857 11.3212 2.54631C11.5248 2.66407 11.7216 2.79319 11.9107 2.93304L13.4263 2.45066C13.7955 2.3333 14.1966 2.48872 14.3903 2.8242L15.891 5.42411C16.0826 5.76012 16.0166 6.18397 15.7319 6.44577L14.5568 7.51773C14.6103 8.00332 14.6103 8.4933 14.5568 8.97889L15.7319 10.0508C16.0166 10.3126 16.0826 10.7365 15.891 11.0725L14.3903 13.6724C14.1966 14.0079 13.7955 14.1633 13.4263 14.046L11.9107 13.5636C11.719 13.7048 11.5197 13.8356 11.3137 13.9553C11.0976 14.0805 10.8746 14.1937 10.6458 14.2942L10.3061 15.8435C10.2233 16.2217 9.88846 16.4913 9.50131 16.4917ZM4.38889 11.733L5.06505 12.2277C5.21747 12.34 5.37634 12.4433 5.54083 12.537C5.69561 12.6266 5.85497 12.7081 6.01827 12.781L6.7876 13.1183L7.16444 14.8425H8.83834L9.21518 13.1175L9.98451 12.7802C10.3204 12.6321 10.6392 12.448 10.9353 12.231L11.6122 11.7363L13.2952 12.2723L14.1322 10.8227L12.8269 9.63278L12.9192 8.79831C12.9598 8.43332 12.9598 8.06495 12.9192 7.69996L12.8269 6.86548L14.133 5.67313L13.2952 4.22269L11.6122 4.75867L10.9353 4.26392C10.6391 4.04599 10.3203 3.8605 9.98451 3.71063L9.21518 3.37337L8.83834 1.64917H7.16444L6.78595 3.3742L6.01827 3.71063C5.85484 3.7824 5.69546 3.86306 5.54083 3.95223C5.37735 4.04568 5.21932 4.14837 5.06752 4.2598L4.39054 4.75455L2.70839 4.21857L1.86979 5.67313L3.1751 6.86136L3.08275 7.69666C3.04218 8.06165 3.04218 8.43002 3.08275 8.79501L3.1751 9.62949L1.86979 10.8194L2.70674 12.269L4.38889 11.733ZM7.99727 11.5442C6.17565 11.5442 4.69893 10.0675 4.69893 8.24584C4.69893 6.42422 6.17565 4.9475 7.99727 4.9475C9.81889 4.9475 11.2956 6.42422 11.2956 8.24584C11.2933 10.0665 9.81795 11.5419 7.99727 11.5442ZM7.99727 6.59667C7.09632 6.59758 6.36285 7.32135 6.34994 8.2222C6.33703 9.12305 7.04946 9.86755 7.95001 9.89428C8.85056 9.92101 9.60589 9.22008 9.64643 8.32005V8.64988V8.24584C9.64643 7.33503 8.90808 6.59667 7.99727 6.59667Z" fill="#4B6AC0"/>
</g>
</svg>
