<svg width="18" height="18" viewBox="0 0 18 18" fill="none" xmlns="http://www.w3.org/2000/svg">
<g id="Frame 48">
<path id="coolicon" d="M10.7998 17.9989H1.80084C1.31856 18.0157 0.850979 17.8315 0.509752 17.4902C0.168525 17.149 -0.015708 16.6814 0.00105129 16.1992V7.20021C-0.015708 6.71793 0.168525 6.25035 0.509752 5.90912C0.850979 5.56789 1.31856 5.38366 1.80084 5.40042H5.40042V1.80084C5.38366 1.31856 5.56789 0.850979 5.90912 0.509752C6.25035 0.168525 6.71793 -0.015708 7.20021 0.00105129H16.1992C16.6814 -0.015708 17.149 0.168525 17.4902 0.509752C17.8315 0.850979 18.0157 1.31856 17.9989 1.80084V10.7998C18.0154 11.282 17.8311 11.7494 17.49 12.0906C17.1488 12.4317 16.6814 12.6161 16.1992 12.5996H12.5996V16.1992C12.6161 16.6814 12.4317 17.1488 12.0906 17.49C11.7494 17.8311 11.282 18.0154 10.7998 17.9989ZM1.80084 7.20021V16.1992H10.7998V12.5996H7.20021C6.71801 12.6161 6.25058 12.4317 5.90942 12.0906C5.56825 11.7494 5.38393 11.282 5.40042 10.7998V7.20021H1.80084ZM7.20021 1.80084V10.7998H16.1992V1.80084H7.20021Z" fill="#4B6AC0"/>
</g>
</svg>
