<svg width="25" height="25" viewBox="0 0 25 25" fill="none" xmlns="http://www.w3.org/2000/svg">
<g id="Frame 74">
<g id="Group 657">
<g id="Group 605">
<rect id="Rectangle 168" y="3" width="22" height="22" rx="5" fill="url(#paint0_linear_1411_4778)"/>
</g>
<path id="Union" fill-rule="evenodd" clip-rule="evenodd" d="M12.5 1.5V14H23.5V1.5H12.5ZM12.5 18.5V15.5H23.5V18.5H12.5ZM12 0C11.4477 0 11 0.447715 11 1V19C11 19.5523 11.4477 20 12 20H24C24.5523 20 25 19.5523 25 19V1C25 0.447715 24.5523 0 24 0H12ZM18 18C18.5523 18 19 17.5523 19 17C19 16.4477 18.5523 16 18 16C17.4477 16 17 16.4477 17 17C17 17.5523 17.4477 18 18 18Z" fill="#1C1939"/>
</g>
</g>
<defs>
<linearGradient id="paint0_linear_1411_4778" x1="11" y1="3" x2="11" y2="25" gradientUnits="userSpaceOnUse">
<stop stop-color="#B39CED" stop-opacity="0.15"/>
<stop offset="1" stop-color="#B39CED"/>
</linearGradient>
</defs>
</svg>
