<svg width="35" height="37" viewBox="0 0 35 37" fill="none" xmlns="http://www.w3.org/2000/svg">
<g id="Frame 70">
<g id="Frame 44">
<g id="Group 610">
<rect id="Rectangle 180" y="7.77783" width="28.5186" height="28.5186" rx="5" fill="url(#paint0_linear_1411_4774)"/>
<g id="Group 609">
<g id="Group 606">
<rect id="Rectangle 182" x="15.0093" y="0.75" width="19.2408" height="28.3149" rx="2.25" stroke="#1C1939" stroke-width="1.5"/>
</g>
<g id="Group 607">
<g id="Rectangle 182_2">
<mask id="path-3-inside-1_1411_4774" fill="white">
<rect x="18.1482" y="3.88892" width="12.963" height="9.07411" rx="1"/>
</mask>
<rect x="18.1482" y="3.88892" width="12.963" height="9.07411" rx="1" stroke="#1C1939" stroke-width="3" mask="url(#path-3-inside-1_1411_4774)"/>
</g>
</g>
<path id="Vector" d="M23.6297 15.5555H19.1482C18.5959 15.5555 18.1482 16.0033 18.1482 16.5555V17.3544C18.1482 17.9067 18.5959 18.3544 19.1482 18.3544H23.6297C24.182 18.3544 24.6297 17.9067 24.6297 17.3544V16.5555C24.6297 16.0033 24.182 15.5555 23.6297 15.5555Z" fill="#1C1939"/>
<path id="Vector_2" d="M30.1108 15.5555H28.2219C27.6696 15.5555 27.2219 16.0033 27.2219 16.5555V18.7538C27.2219 19.3061 27.6696 19.7538 28.2219 19.7538H30.1108C30.6631 19.7538 31.1108 19.3061 31.1108 18.7538V16.5555C31.1108 16.0033 30.6631 15.5555 30.1108 15.5555Z" fill="#1C1939"/>
</g>
</g>
</g>
</g>
<defs>
<linearGradient id="paint0_linear_1411_4774" x1="14.2593" y1="7.77783" x2="14.2593" y2="36.2965" gradientUnits="userSpaceOnUse">
<stop stop-color="#96D9EE" stop-opacity="0.15"/>
<stop offset="1" stop-color="#96D9EE"/>
</linearGradient>
</defs>
</svg>
