<svg width="25" height="26" viewBox="0 0 25 26" fill="none" xmlns="http://www.w3.org/2000/svg">
<g id="Frame 78">
<rect id="Rectangle 169" y="4" width="22" height="22" rx="5" fill="url(#paint0_linear_1411_4782)"/>
<g id="Group">
<g id="Vector">
<mask id="path-2-inside-1_1411_4782" fill="white">
<path d="M21.0578 18C20.944 18 20.8302 18 20.7118 18C20.6799 17.9861 20.6526 17.9721 20.6207 17.9628C19.6828 17.791 18.7449 17.6237 17.8069 17.4565C15.8172 17.0988 13.832 16.7364 11.8423 16.3834C11.2368 16.2765 11 16.0025 11 15.3753C11 11.1247 11 6.86951 11 2.61893C11 2.00109 11.2413 1.72236 11.8332 1.62016C13.4997 1.32285 15.1661 1.0209 16.8325 0.718942C18.1393 0.482024 19.4415 0.245107 20.7482 0.0128343C21.1671 -0.0614928 21.5632 0.194007 21.6634 0.598161C21.6953 0.728233 21.6998 0.862951 21.6998 0.997669C21.6998 6.0101 21.6998 11.0272 21.6998 16.0396C21.6998 16.3927 21.6998 16.7411 21.6998 17.0941C21.6998 17.3218 21.668 17.5494 21.4949 17.7073C21.3675 17.8281 21.2035 17.9024 21.0578 18ZM18.4853 9.54064C18.4853 9.09468 18.1165 8.72304 17.684 8.72304C17.2469 8.72769 16.8826 9.09933 16.8872 9.54529C16.8872 9.99125 17.256 10.3629 17.6885 10.3629C18.1256 10.3629 18.4899 9.98661 18.4853 9.54064Z"/>
</mask>
<path d="M21.0578 18C20.944 18 20.8302 18 20.7118 18C20.6799 17.9861 20.6526 17.9721 20.6207 17.9628C19.6828 17.791 18.7449 17.6237 17.8069 17.4565C15.8172 17.0988 13.832 16.7364 11.8423 16.3834C11.2368 16.2765 11 16.0025 11 15.3753C11 11.1247 11 6.86951 11 2.61893C11 2.00109 11.2413 1.72236 11.8332 1.62016C13.4997 1.32285 15.1661 1.0209 16.8325 0.718942C18.1393 0.482024 19.4415 0.245107 20.7482 0.0128343C21.1671 -0.0614928 21.5632 0.194007 21.6634 0.598161C21.6953 0.728233 21.6998 0.862951 21.6998 0.997669C21.6998 6.0101 21.6998 11.0272 21.6998 16.0396C21.6998 16.3927 21.6998 16.7411 21.6998 17.0941C21.6998 17.3218 21.668 17.5494 21.4949 17.7073C21.3675 17.8281 21.2035 17.9024 21.0578 18ZM18.4853 9.54064C18.4853 9.09468 18.1165 8.72304 17.684 8.72304C17.2469 8.72769 16.8826 9.09933 16.8872 9.54529C16.8872 9.99125 17.256 10.3629 17.6885 10.3629C18.1256 10.3629 18.4899 9.98661 18.4853 9.54064Z" stroke="#1C1939" stroke-width="3" mask="url(#path-2-inside-1_1411_4782)"/>
</g>
<path id="Vector_2" d="M23.3115 16.3462C23.3115 11.4406 23.3115 6.54897 23.3115 1.65267C23.6393 1.65267 23.9626 1.6248 24.2813 1.66196C24.591 1.69448 24.8368 1.9825 24.8915 2.29839C24.9097 2.39594 24.9142 2.49814 24.9142 2.5957C24.9142 6.86486 24.9142 11.134 24.9142 15.4032C24.9142 15.9281 24.6592 16.2998 24.2449 16.3369C23.9399 16.3694 23.6302 16.3462 23.3115 16.3462Z" fill="#1C1939"/>
</g>
</g>
<defs>
<linearGradient id="paint0_linear_1411_4782" x1="11" y1="4" x2="11" y2="26" gradientUnits="userSpaceOnUse">
<stop stop-color="#8CE795" stop-opacity="0.15"/>
<stop offset="1" stop-color="#AFEAB5"/>
</linearGradient>
</defs>
</svg>
