<svg width="13" height="18" viewBox="0 0 13 18" fill="none" xmlns="http://www.w3.org/2000/svg">
<g id="Frame 60">
<g id="Group 633">
<g id="Group 610">
<g id="Group 631">
<g id="Rectangle 182">
<mask id="path-1-inside-1_1411_4764" fill="white">
<rect width="12.5217" height="18" rx="1"/>
</mask>
<rect width="12.5217" height="18" rx="1" stroke="#4B6AC0" stroke-width="3" mask="url(#path-1-inside-1_1411_4764)"/>
</g>
<rect id="Rectangle 182_2" x="3.09766" y="3.09802" width="6.32609" height="3.97826" stroke="#4B6AC0" stroke-width="1.5"/>
<path id="Vector" d="M5.7607 9.39111H2.84766C2.57151 9.39111 2.34766 9.61497 2.34766 9.89111V10.5808C2.34766 10.857 2.57151 11.0808 2.84766 11.0808H5.7607C6.03684 11.0808 6.2607 10.857 6.2607 10.5808V9.89111C6.2607 9.61497 6.03684 9.39111 5.7607 9.39111Z" fill="#4B6AC0"/>
<path id="Vector_2" d="M9.67375 9.39111H8.32593C8.04979 9.39111 7.82593 9.61497 7.82593 9.89111V11.4257C7.82593 11.7018 8.04979 11.9257 8.32593 11.9257H9.67375C9.9499 11.9257 10.1738 11.7018 10.1738 11.4257V9.89111C10.1738 9.61497 9.9499 9.39111 9.67375 9.39111Z" fill="#4B6AC0"/>
</g>
</g>
</g>
</g>
</svg>
