<svg width="16" height="13" viewBox="0 0 16 13" fill="none" xmlns="http://www.w3.org/2000/svg">
<g id="Frame 45">
<path id="Vector" d="M14.4 0H1.6C0.72 0 0.00799999 0.72 0.00799999 1.6L0 11.2C0 12.08 0.72 12.8 1.6 12.8H14.4C15.28 12.8 16 12.08 16 11.2V1.6C16 0.72 15.28 0 14.4 0ZM14.4 11.2H1.6V3.46667L7.39296 7.89184C7.75135 8.16562 8.24865 8.16562 8.60704 7.89184L14.4 3.46667V11.2ZM8.61394 6.10027C8.25283 6.38113 7.74717 6.38113 7.38606 6.10027L1.6 1.6H14.4L8.61394 6.10027Z" fill="#4B6AC0"/>
</g>
</svg>
