<svg width="14" height="18" viewBox="0 0 14 18" fill="none" xmlns="http://www.w3.org/2000/svg">
<g id="Frame 46">
<g id="Frame" clip-path="url(#clip0_1410_4753)">
<g id="Vector">
<mask id="path-1-inside-1_1410_4753" fill="white">
<path d="M12.6 7.425H11.7V4.8375C11.7 2.1375 9.45 0 6.75 0C4.05 0 1.8 2.1375 1.8 4.8375V7.425H0.9C0.45 7.425 0 7.7625 0 8.325V17.1C0 17.55 0.45 18 0.9 18H12.6C13.05 18 13.5 17.55 13.5 17.1V8.325C13.5 7.7625 13.05 7.425 12.6 7.425ZM3.6 4.8375C3.6 3.15 4.95 1.8 6.75 1.8C8.4375 1.8 9.9 3.15 9.9 4.8375V7.425H3.6V4.8375Z"/>
</mask>
<path d="M12.6 7.425H11.7V4.8375C11.7 2.1375 9.45 0 6.75 0C4.05 0 1.8 2.1375 1.8 4.8375V7.425H0.9C0.45 7.425 0 7.7625 0 8.325V17.1C0 17.55 0.45 18 0.9 18H12.6C13.05 18 13.5 17.55 13.5 17.1V8.325C13.5 7.7625 13.05 7.425 12.6 7.425ZM3.6 4.8375C3.6 3.15 4.95 1.8 6.75 1.8C8.4375 1.8 9.9 3.15 9.9 4.8375V7.425H3.6V4.8375Z" stroke="#4B6AC0" stroke-width="4" mask="url(#path-1-inside-1_1410_4753)"/>
</g>
</g>
</g>
<defs>
<clipPath id="clip0_1410_4753">
<rect width="13.5" height="18" fill="white"/>
</clipPath>
</defs>
</svg>
