<svg width="15" height="17" viewBox="0 0 15 17" fill="none" xmlns="http://www.w3.org/2000/svg">
<g id="Frame 50">
<g id="Group">
<g id="Vector">
<mask id="path-1-outside-1_1411_4754" maskUnits="userSpaceOnUse" x="0" y="0" width="12" height="17" fill="black">
<rect fill="white" width="12" height="17"/>
<path d="M3.16018 16.582C3.04226 16.5536 2.92434 16.5292 2.81049 16.4967C1.74514 16.2122 1.00508 15.2612 1.00102 14.1599C1.00102 10.5795 0.99695 6.99911 1.00508 3.41871C1.00508 2.08978 2.0867 1.00876 3.41635 1.00469C5.7097 0.996565 8.00305 1.00063 10.2964 1.00469C10.7315 1.00469 11.0527 1.31356 11.0527 1.72809C11.0568 2.15074 10.7355 2.46367 10.2923 2.46367C8.04371 2.46367 5.79509 2.46367 3.55054 2.46367C2.85928 2.46367 2.46486 2.85788 2.46486 3.5447C2.46486 7.04381 2.46486 10.5429 2.46486 14.038C2.46486 14.7248 2.85928 15.119 3.5546 15.119C5.80322 15.119 8.05184 15.119 10.2964 15.119C10.6827 15.119 10.9917 15.3669 11.0486 15.7205C11.1096 16.1025 10.9063 16.4235 10.5241 16.5536C10.5038 16.5617 10.4875 16.5698 10.4712 16.582C8.03558 16.582 5.59991 16.582 3.16018 16.582Z"/>
</mask>
<path d="M3.16018 16.582C3.04226 16.5536 2.92434 16.5292 2.81049 16.4967C1.74514 16.2122 1.00508 15.2612 1.00102 14.1599C1.00102 10.5795 0.99695 6.99911 1.00508 3.41871C1.00508 2.08978 2.0867 1.00876 3.41635 1.00469C5.7097 0.996565 8.00305 1.00063 10.2964 1.00469C10.7315 1.00469 11.0527 1.31356 11.0527 1.72809C11.0568 2.15074 10.7355 2.46367 10.2923 2.46367C8.04371 2.46367 5.79509 2.46367 3.55054 2.46367C2.85928 2.46367 2.46486 2.85788 2.46486 3.5447C2.46486 7.04381 2.46486 10.5429 2.46486 14.038C2.46486 14.7248 2.85928 15.119 3.5546 15.119C5.80322 15.119 8.05184 15.119 10.2964 15.119C10.6827 15.119 10.9917 15.3669 11.0486 15.7205C11.1096 16.1025 10.9063 16.4235 10.5241 16.5536C10.5038 16.5617 10.4875 16.5698 10.4712 16.582C8.03558 16.582 5.59991 16.582 3.16018 16.582Z" fill="#4B6AC0"/>
<path d="M3.16018 16.582C3.04226 16.5536 2.92434 16.5292 2.81049 16.4967C1.74514 16.2122 1.00508 15.2612 1.00102 14.1599C1.00102 10.5795 0.99695 6.99911 1.00508 3.41871C1.00508 2.08978 2.0867 1.00876 3.41635 1.00469C5.7097 0.996565 8.00305 1.00063 10.2964 1.00469C10.7315 1.00469 11.0527 1.31356 11.0527 1.72809C11.0568 2.15074 10.7355 2.46367 10.2923 2.46367C8.04371 2.46367 5.79509 2.46367 3.55054 2.46367C2.85928 2.46367 2.46486 2.85788 2.46486 3.5447C2.46486 7.04381 2.46486 10.5429 2.46486 14.038C2.46486 14.7248 2.85928 15.119 3.5546 15.119C5.80322 15.119 8.05184 15.119 10.2964 15.119C10.6827 15.119 10.9917 15.3669 11.0486 15.7205C11.1096 16.1025 10.9063 16.4235 10.5241 16.5536C10.5038 16.5617 10.4875 16.5698 10.4712 16.582C8.03558 16.582 5.59991 16.582 3.16018 16.582Z" stroke="#4B6AC0" stroke-width="0.4" mask="url(#path-1-outside-1_1411_4754)"/>
</g>
<g id="Vector_2">
<mask id="path-2-outside-2_1411_4754" maskUnits="userSpaceOnUse" x="4.59521" y="3.59155" width="11" height="10" fill="black">
<rect fill="white" x="4.59521" y="3.59155" width="11" height="10"/>
<path d="M12.041 9.52282C11.9881 9.52282 11.9352 9.52282 11.8783 9.52282C10.0404 9.52282 8.20651 9.52282 6.36858 9.52282C5.97009 9.52282 5.66513 9.27085 5.60413 8.89696C5.53501 8.47024 5.87657 8.06791 6.32385 8.06384C6.84026 8.05978 7.36074 8.06384 7.87715 8.06384C9.21087 8.06384 10.5446 8.06384 11.8783 8.06384C11.9312 8.06384 11.984 8.06384 12.0694 8.06384C12.0125 7.99882 11.9759 7.96224 11.9393 7.9216C11.2562 7.23478 10.569 6.55203 9.8818 5.86928C9.67442 5.66201 9.58903 5.41817 9.65815 5.13776C9.79234 4.60131 10.447 4.41436 10.8577 4.78419C10.8943 4.8167 10.9309 4.85328 10.9675 4.88985C12.0735 5.99526 13.1754 7.09661 14.2814 8.20202C14.6759 8.59623 14.6718 8.9945 14.2774 9.39277C13.1632 10.5063 12.045 11.6198 10.9309 12.7374C10.7154 12.9528 10.4714 13.0504 10.1746 12.9691C9.65815 12.8269 9.46704 12.2091 9.8086 11.7987C9.84927 11.754 9.88993 11.7093 9.93466 11.6686C10.5975 11.0062 11.2602 10.3437 11.9271 9.68131C11.9678 9.64067 12.0125 9.60816 12.0572 9.57565C12.0532 9.55127 12.045 9.53501 12.041 9.52282Z"/>
</mask>
<path d="M12.041 9.52282C11.9881 9.52282 11.9352 9.52282 11.8783 9.52282C10.0404 9.52282 8.20651 9.52282 6.36858 9.52282C5.97009 9.52282 5.66513 9.27085 5.60413 8.89696C5.53501 8.47024 5.87657 8.06791 6.32385 8.06384C6.84026 8.05978 7.36074 8.06384 7.87715 8.06384C9.21087 8.06384 10.5446 8.06384 11.8783 8.06384C11.9312 8.06384 11.984 8.06384 12.0694 8.06384C12.0125 7.99882 11.9759 7.96224 11.9393 7.9216C11.2562 7.23478 10.569 6.55203 9.8818 5.86928C9.67442 5.66201 9.58903 5.41817 9.65815 5.13776C9.79234 4.60131 10.447 4.41436 10.8577 4.78419C10.8943 4.8167 10.9309 4.85328 10.9675 4.88985C12.0735 5.99526 13.1754 7.09661 14.2814 8.20202C14.6759 8.59623 14.6718 8.9945 14.2774 9.39277C13.1632 10.5063 12.045 11.6198 10.9309 12.7374C10.7154 12.9528 10.4714 13.0504 10.1746 12.9691C9.65815 12.8269 9.46704 12.2091 9.8086 11.7987C9.84927 11.754 9.88993 11.7093 9.93466 11.6686C10.5975 11.0062 11.2602 10.3437 11.9271 9.68131C11.9678 9.64067 12.0125 9.60816 12.0572 9.57565C12.0532 9.55127 12.045 9.53501 12.041 9.52282Z" fill="#4B6AC0"/>
<path d="M12.041 9.52282C11.9881 9.52282 11.9352 9.52282 11.8783 9.52282C10.0404 9.52282 8.20651 9.52282 6.36858 9.52282C5.97009 9.52282 5.66513 9.27085 5.60413 8.89696C5.53501 8.47024 5.87657 8.06791 6.32385 8.06384C6.84026 8.05978 7.36074 8.06384 7.87715 8.06384C9.21087 8.06384 10.5446 8.06384 11.8783 8.06384C11.9312 8.06384 11.984 8.06384 12.0694 8.06384C12.0125 7.99882 11.9759 7.96224 11.9393 7.9216C11.2562 7.23478 10.569 6.55203 9.8818 5.86928C9.67442 5.66201 9.58903 5.41817 9.65815 5.13776C9.79234 4.60131 10.447 4.41436 10.8577 4.78419C10.8943 4.8167 10.9309 4.85328 10.9675 4.88985C12.0735 5.99526 13.1754 7.09661 14.2814 8.20202C14.6759 8.59623 14.6718 8.9945 14.2774 9.39277C13.1632 10.5063 12.045 11.6198 10.9309 12.7374C10.7154 12.9528 10.4714 13.0504 10.1746 12.9691C9.65815 12.8269 9.46704 12.2091 9.8086 11.7987C9.84927 11.754 9.88993 11.7093 9.93466 11.6686C10.5975 11.0062 11.2602 10.3437 11.9271 9.68131C11.9678 9.64067 12.0125 9.60816 12.0572 9.57565C12.0532 9.55127 12.045 9.53501 12.041 9.52282Z" stroke="#4B6AC0" stroke-width="0.4" mask="url(#path-2-outside-2_1411_4754)"/>
</g>
</g>
</g>
</svg>
