<svg width="16" height="16" viewBox="0 0 16 16" fill="none" xmlns="http://www.w3.org/2000/svg">
<g id="Frame 65">
<g id="Frame 64">
<g id="coolicon">
<path d="M0 1.6V12.8L3.84 9.92C4.11665 9.71171 4.4537 9.59936 4.8 9.6H11.2C12.0837 9.6 12.8 8.88366 12.8 8V1.6C12.8 0.716344 12.0837 0 11.2 0H1.6C0.716344 0 0 0.716344 0 1.6ZM1.6 9.6V1.6H11.2V8H4.2672C3.92086 7.99907 3.58372 8.11145 3.3072 8.32L1.6 9.6Z" fill="#4B6AC0"/>
<path d="M16 16V5.6C16 4.71634 15.2837 4 14.4 4V12.8L12.6928 11.52C12.4163 11.3115 12.0791 11.1991 11.7328 11.2H4C4 12.0837 4.71634 12.8 5.6 12.8H11.2C11.5463 12.7994 11.8833 12.9117 12.16 13.12L16 16Z" fill="#4B6AC0"/>
</g>
</g>
</g>
</svg>
