<svg width="25.26" height="24.32" viewBox="0 0 20 19" fill="none" xmlns="http://www.w3.org/2000/svg">
<ellipse cx="17" cy="3" rx="2.99998" ry="3" fill="white"/>
<g clip-path="url(#clip0_2264_7316)">
<path d="M13.844 14.4534L13.8665 14.4724L13.89 14.49C13.9837 14.5603 14.0523 14.6504 14.1023 14.7739C14.0526 14.9093 13.9065 15.03 13.77 15.03H1.35C1.18229 15.03 1 14.8477 1 14.68C1 14.6473 1.02434 14.5403 1.13544 14.4197C2.51034 13.2361 3.25 11.5303 3.25 9.82V7.75C3.25 5.55839 4.85336 3.8111 6.89141 3.51995L7.46999 3.4373L8.04857 3.51995C10.0761 3.8096 11.69 5.63783 11.69 7.75V9.82C11.69 11.6462 12.4511 13.2747 13.844 14.4534Z" stroke="white" stroke-width="2"/>
<path d="M7.47002 19C8.82001 19 9.99001 18.01 10.26 16.75H4.77002C5.04002 18.01 6.12002 19 7.47002 19Z" fill="white"/>
</g>
<defs>
<clipPath id="clip0_2264_7316">
<rect y="1" width="15.03" height="18" rx="7.51499" fill="white"/>
</clipPath>
</defs>
</svg>
