<svg width="14" height="17" viewBox="0 0 14 17" fill="none" xmlns="http://www.w3.org/2000/svg">
<g id="Frame" clip-path="url(#clip0_1102_15509)">
<g id="Vector">
<mask id="path-1-inside-1_1102_15509" fill="white">
<path d="M6.94657 8.10526C8.10447 8.10526 9.05184 7.68421 9.78868 6.94737C10.5255 6.21053 10.9466 5.15789 10.9466 4.10526C10.9466 2.94737 10.5255 2 9.78868 1.26316C8.94657 0.421053 7.9992 0 6.94657 0C5.78868 0 4.84131 0.421053 4.10447 1.15789C3.36762 1.89474 2.84131 2.94737 2.84131 4.10526C2.84131 5.26316 3.26236 6.21053 3.9992 6.94737C4.84131 7.68421 5.78868 8.10526 6.94657 8.10526Z"/>
</mask>
<path d="M6.94657 8.10526C8.10447 8.10526 9.05184 7.68421 9.78868 6.94737C10.5255 6.21053 10.9466 5.15789 10.9466 4.10526C10.9466 2.94737 10.5255 2 9.78868 1.26316C8.94657 0.421053 7.9992 0 6.94657 0C5.78868 0 4.84131 0.421053 4.10447 1.15789C3.36762 1.89474 2.84131 2.94737 2.84131 4.10526C2.84131 5.26316 3.26236 6.21053 3.9992 6.94737C4.84131 7.68421 5.78868 8.10526 6.94657 8.10526Z" stroke="#4B6AC0" stroke-width="3.6" mask="url(#path-1-inside-1_1102_15509)"/>
</g>
<g id="Vector_2">
<mask id="path-2-inside-2_1102_15509" fill="white">
<path d="M13.9975 12.9473C13.9975 12.6315 13.8923 12.2105 13.8923 11.8947C13.787 11.4737 13.787 11.1579 13.6817 10.8421C13.5765 10.5263 13.4712 10.2105 13.2607 9.8947C13.0502 9.57891 12.8396 9.26312 12.6291 9.0526C12.4186 8.84207 11.9975 8.63154 11.6817 8.42101C11.2607 8.31575 10.9449 8.21049 10.4186 8.21049C10.2081 8.10523 9.99753 8.21049 9.68174 8.42101C9.47121 8.52628 9.26069 8.7368 9.05016 8.84207C8.73437 8.94733 8.52384 9.15786 8.10279 9.26312C7.787 9.36839 7.36595 9.47365 7.05016 9.47365C6.62911 9.47365 6.31332 9.36839 5.89226 9.26312C5.57647 9.15786 5.26068 8.94733 5.05016 8.84207C4.83963 8.7368 4.52384 8.52628 4.31331 8.42101C3.99752 8.21049 3.89226 8.10522 3.68173 8.10522C3.26068 8.10522 2.83963 8.21049 2.41858 8.31575C2.10279 8.52628 1.787 8.7368 1.57647 8.94733C1.26068 9.15786 1.05015 9.47365 0.839626 9.78944C0.734363 10.1052 0.523836 10.5263 0.418573 10.8421C0.31331 11.1579 0.208046 11.5789 0.208046 11.8947C0.102783 12.3158 0.102783 12.6315 0.102783 12.9473C0.102783 13.2631 0.102783 13.5789 0.102783 13.8947C0.102783 14.7368 0.418573 15.4737 0.944889 16C1.36594 16.6316 2.10279 16.8421 2.94489 16.8421H11.0502C11.8923 16.8421 12.6291 16.6316 13.1554 16.1052C13.6817 15.5789 13.9975 14.8421 13.9975 14C13.9975 13.5789 13.9975 13.2631 13.9975 12.9473Z"/>
</mask>
<path d="M13.9975 12.9473C13.9975 12.6315 13.8923 12.2105 13.8923 11.8947C13.787 11.4737 13.787 11.1579 13.6817 10.8421C13.5765 10.5263 13.4712 10.2105 13.2607 9.8947C13.0502 9.57891 12.8396 9.26312 12.6291 9.0526C12.4186 8.84207 11.9975 8.63154 11.6817 8.42101C11.2607 8.31575 10.9449 8.21049 10.4186 8.21049C10.2081 8.10523 9.99753 8.21049 9.68174 8.42101C9.47121 8.52628 9.26069 8.7368 9.05016 8.84207C8.73437 8.94733 8.52384 9.15786 8.10279 9.26312C7.787 9.36839 7.36595 9.47365 7.05016 9.47365C6.62911 9.47365 6.31332 9.36839 5.89226 9.26312C5.57647 9.15786 5.26068 8.94733 5.05016 8.84207C4.83963 8.7368 4.52384 8.52628 4.31331 8.42101C3.99752 8.21049 3.89226 8.10522 3.68173 8.10522C3.26068 8.10522 2.83963 8.21049 2.41858 8.31575C2.10279 8.52628 1.787 8.7368 1.57647 8.94733C1.26068 9.15786 1.05015 9.47365 0.839626 9.78944C0.734363 10.1052 0.523836 10.5263 0.418573 10.8421C0.31331 11.1579 0.208046 11.5789 0.208046 11.8947C0.102783 12.3158 0.102783 12.6315 0.102783 12.9473C0.102783 13.2631 0.102783 13.5789 0.102783 13.8947C0.102783 14.7368 0.418573 15.4737 0.944889 16C1.36594 16.6316 2.10279 16.8421 2.94489 16.8421H11.0502C11.8923 16.8421 12.6291 16.6316 13.1554 16.1052C13.6817 15.5789 13.9975 14.8421 13.9975 14C13.9975 13.5789 13.9975 13.2631 13.9975 12.9473Z" stroke="#4B6AC0" stroke-width="3.6" mask="url(#path-2-inside-2_1102_15509)"/>
</g>
</g>
<defs>
<clipPath id="clip0_1102_15509">
<rect width="14" height="16.8421" fill="white"/>
</clipPath>
</defs>
</svg>
