<svg width="17" height="18" viewBox="0 0 17 18" fill="none" xmlns="http://www.w3.org/2000/svg">
<g id="Frame 51">
<g id="Vector">
<mask id="path-1-inside-1_1411_4755" fill="white">
<path d="M14.8971 12.4916C13.7729 11.5922 12.6487 11.0301 11.637 11.9295L10.9625 12.4916C10.5128 12.9412 9.61348 14.8523 6.24097 10.9177C2.86846 7.09554 4.89196 6.42104 5.34163 6.08379L6.01613 5.5217C7.02789 4.62237 6.69064 3.38578 5.90372 2.26161L5.45405 1.47469C4.66713 0.238102 3.76779 -0.548817 2.75604 0.462936L2.19395 0.912605C1.63187 1.24986 0.282864 2.37403 0.0580295 4.50995C-0.279222 7.09554 0.844949 10.0184 3.65538 13.1661C6.4658 16.4262 9.16381 18 11.7494 18C13.8853 18 15.2343 16.8758 15.5716 16.4262L16.1337 15.8641C17.2578 14.9647 16.5833 13.953 15.4592 13.0536L14.8971 12.4916Z"/>
</mask>
<path d="M14.8971 12.4916C13.7729 11.5922 12.6487 11.0301 11.637 11.9295L10.9625 12.4916C10.5128 12.9412 9.61348 14.8523 6.24097 10.9177C2.86846 7.09554 4.89196 6.42104 5.34163 6.08379L6.01613 5.5217C7.02789 4.62237 6.69064 3.38578 5.90372 2.26161L5.45405 1.47469C4.66713 0.238102 3.76779 -0.548817 2.75604 0.462936L2.19395 0.912605C1.63187 1.24986 0.282864 2.37403 0.0580295 4.50995C-0.279222 7.09554 0.844949 10.0184 3.65538 13.1661C6.4658 16.4262 9.16381 18 11.7494 18C13.8853 18 15.2343 16.8758 15.5716 16.4262L16.1337 15.8641C17.2578 14.9647 16.5833 13.953 15.4592 13.0536L14.8971 12.4916Z" stroke="#4B6AC0" stroke-width="3" mask="url(#path-1-inside-1_1411_4755)"/>
</g>
</g>
</svg>
