<svg width="16" height="16" viewBox="0 0 16 16" fill="none" xmlns="http://www.w3.org/2000/svg">
<g id="Frame 63">
<g id="Vector">
<mask id="path-1-outside-1_1411_4767" maskUnits="userSpaceOnUse" x="0" y="0" width="16" height="16" fill="black">
<rect fill="white" width="16" height="16"/>
<path d="M8 15C7.7 15 7.4 14.7 7.4 14.4V8.6H1.6C1.3 8.6 1 8.3 1 8C1 7.7 1.3 7.4 1.6 7.4H7.3V1.6C7.4 1.3 7.7 1 8 1C8.3 1 8.6 1.3 8.6 1.6V7.3H14.3C14.7 7.4 15 7.7 15 8C15 8.3 14.7 8.6 14.4 8.6H8.6V14.3C8.6 14.7 8.3 15 8 15Z"/>
</mask>
<path d="M8 15C7.7 15 7.4 14.7 7.4 14.4V8.6H1.6C1.3 8.6 1 8.3 1 8C1 7.7 1.3 7.4 1.6 7.4H7.3V1.6C7.4 1.3 7.7 1 8 1C8.3 1 8.6 1.3 8.6 1.6V7.3H14.3C14.7 7.4 15 7.7 15 8C15 8.3 14.7 8.6 14.4 8.6H8.6V14.3C8.6 14.7 8.3 15 8 15Z" fill="#4B6AC0"/>
<path d="M8 15C7.7 15 7.4 14.7 7.4 14.4V8.6H1.6C1.3 8.6 1 8.3 1 8C1 7.7 1.3 7.4 1.6 7.4H7.3V1.6C7.4 1.3 7.7 1 8 1C8.3 1 8.6 1.3 8.6 1.6V7.3H14.3C14.7 7.4 15 7.7 15 8C15 8.3 14.7 8.6 14.4 8.6H8.6V14.3C8.6 14.7 8.3 15 8 15Z" stroke="#4B6AC0" stroke-linejoin="round" mask="url(#path-1-outside-1_1411_4767)"/>
</g>
</g>
</svg>
