<svg width="18" height="17" viewBox="0 0 18 17" fill="none" xmlns="http://www.w3.org/2000/svg">
<g id="Frame 47">
<path id="Union" fill-rule="evenodd" clip-rule="evenodd" d="M10.8 1.78946V3.57893H7.2V1.78946H10.8ZM1.8 7.42019V15.2104H16.2V7.42019C14.9034 8.91268 12.1666 9.94149 9 9.94149C5.83344 9.94149 3.09658 8.91268 1.8 7.42019ZM15.192 5.36839H2.80798C2.8024 5.4049 2.8 5.43816 2.8 5.46783C2.8 5.75869 3.03086 6.39422 4.22168 7.06014C5.35396 7.69332 7.03975 8.14149 9 8.14149C10.9602 8.14149 12.646 7.69332 13.7783 7.06014C14.9691 6.39422 15.2 5.75869 15.2 5.46783C15.2 5.43816 15.1976 5.4049 15.192 5.36839ZM18 5.36839C18 4.37524 17.199 3.57893 16.2 3.57893H12.6V1.78946C12.6 0.796311 11.799 0 10.8 0H7.2C6.201 0 5.4 0.796311 5.4 1.78946V3.57893H1.8C0.801 3.57893 0.00899999 4.37524 0.00899999 5.36839L0 15.2104C0 16.2036 0.801 16.9999 1.8 16.9999H16.2C17.199 16.9999 18 16.2036 18 15.2104V5.36839Z" fill="#4B6AC0"/>
</g>
</svg>
