<svg width="14" height="18" viewBox="0 0 14 18" fill="none" xmlns="http://www.w3.org/2000/svg">
<g id="Frame 59">
<g id="Group">
<g id="Vector">
<mask id="path-1-inside-1_1411_4763" fill="white">
<path d="M10.0578 18C9.94401 18 9.83018 18 9.7118 18C9.67993 17.9861 9.65261 17.9721 9.62074 17.9628C8.6828 17.791 7.74485 17.6237 6.80691 17.4565C4.8172 17.0988 2.83204 16.7364 0.842327 16.3834C0.236762 16.2765 0 16.0025 0 15.3753C0 11.1247 0 6.86951 0 2.61893C0 2.00109 0.241315 1.72236 0.833221 1.62016C2.49966 1.32285 4.1661 1.0209 5.83255 0.718942C7.13929 0.482024 8.44148 0.245107 9.74823 0.0128343C10.1671 -0.0614928 10.5632 0.194007 10.6634 0.598161C10.6953 0.728233 10.6998 0.862951 10.6998 0.997669C10.6998 6.0101 10.6998 11.0272 10.6998 16.0396C10.6998 16.3927 10.6998 16.7411 10.6998 17.0941C10.6998 17.3218 10.668 17.5494 10.4949 17.7073C10.3675 17.8281 10.2035 17.9024 10.0578 18ZM7.48533 9.54064C7.48533 9.09468 7.11652 8.72304 6.68398 8.72304C6.24688 8.72769 5.88263 9.09933 5.88718 9.54529C5.88718 9.99125 6.25598 10.3629 6.68853 10.3629C7.12563 10.3629 7.48988 9.98661 7.48533 9.54064Z"/>
</mask>
<path d="M10.0578 18C9.94401 18 9.83018 18 9.7118 18C9.67993 17.9861 9.65261 17.9721 9.62074 17.9628C8.6828 17.791 7.74485 17.6237 6.80691 17.4565C4.8172 17.0988 2.83204 16.7364 0.842327 16.3834C0.236762 16.2765 0 16.0025 0 15.3753C0 11.1247 0 6.86951 0 2.61893C0 2.00109 0.241315 1.72236 0.833221 1.62016C2.49966 1.32285 4.1661 1.0209 5.83255 0.718942C7.13929 0.482024 8.44148 0.245107 9.74823 0.0128343C10.1671 -0.0614928 10.5632 0.194007 10.6634 0.598161C10.6953 0.728233 10.6998 0.862951 10.6998 0.997669C10.6998 6.0101 10.6998 11.0272 10.6998 16.0396C10.6998 16.3927 10.6998 16.7411 10.6998 17.0941C10.6998 17.3218 10.668 17.5494 10.4949 17.7073C10.3675 17.8281 10.2035 17.9024 10.0578 18ZM7.48533 9.54064C7.48533 9.09468 7.11652 8.72304 6.68398 8.72304C6.24688 8.72769 5.88263 9.09933 5.88718 9.54529C5.88718 9.99125 6.25598 10.3629 6.68853 10.3629C7.12563 10.3629 7.48988 9.98661 7.48533 9.54064Z" stroke="#4B6AC0" stroke-width="3" mask="url(#path-1-inside-1_1411_4763)"/>
</g>
<g id="Vector_2">
<mask id="path-2-inside-2_1411_4763" fill="white">
<path d="M12.3115 16.3462C12.3115 11.4406 12.3115 6.54897 12.3115 1.65267C12.6393 1.65267 12.9626 1.6248 13.2813 1.66196C13.591 1.69448 13.8368 1.9825 13.8915 2.29839C13.9097 2.39594 13.9142 2.49814 13.9142 2.5957C13.9142 6.86486 13.9142 11.134 13.9142 15.4032C13.9142 15.9281 13.6592 16.2998 13.2449 16.3369C12.9399 16.3694 12.6302 16.3462 12.3115 16.3462Z"/>
</mask>
<path d="M12.3115 16.3462C12.3115 11.4406 12.3115 6.54897 12.3115 1.65267C12.6393 1.65267 12.9626 1.6248 13.2813 1.66196C13.591 1.69448 13.8368 1.9825 13.8915 2.29839C13.9097 2.39594 13.9142 2.49814 13.9142 2.5957C13.9142 6.86486 13.9142 11.134 13.9142 15.4032C13.9142 15.9281 13.6592 16.2998 13.2449 16.3369C12.9399 16.3694 12.6302 16.3462 12.3115 16.3462Z" fill="#1C1939" stroke="#4B6AC0" stroke-width="2" mask="url(#path-2-inside-2_1411_4763)"/>
</g>
</g>
</g>
</svg>
