<svg width="28" height="28" viewBox="0 0 28 28" fill="none" xmlns="http://www.w3.org/2000/svg">
<g id="Frame 52" filter="url(#filter0_d_1411_4756)">
<path id="Icon" fill-rule="evenodd" clip-rule="evenodd" d="M16.3419 13.4392C13.6002 15.6351 9.58684 15.4623 7.04526 12.9207C4.31825 10.1937 4.31825 5.77228 7.04526 3.04526C9.77228 0.318245 14.1937 0.318245 16.9207 3.04526C19.4623 5.58684 19.6351 9.60016 17.4392 12.3419L22.7728 17.6755C23.0758 17.9785 23.0758 18.4697 22.7728 18.7727C22.4698 19.0758 21.9785 19.0758 21.6755 18.7727L16.3419 13.4392ZM8.14253 11.8234C6.02152 9.70239 6.02152 6.26355 8.14253 4.14253C10.2635 2.02152 13.7024 2.02152 15.8234 4.14253C17.9429 6.26199 17.9444 9.69735 15.8281 11.8187C15.8265 11.8203 15.8249 11.8218 15.8234 11.8234C15.8218 11.8249 15.8203 11.8265 15.8187 11.8281C13.6974 13.9444 10.262 13.9429 8.14253 11.8234Z" fill="#4B6AC0" stroke="#4B6AC0" stroke-width="0.5" stroke-linecap="round"/>
</g>
<defs>
<filter id="filter0_d_1411_4756" x="0.75" y="0.75" width="26.5" height="26.5" filterUnits="userSpaceOnUse" color-interpolation-filters="sRGB">
<feFlood flood-opacity="0" result="BackgroundImageFix"/>
<feColorMatrix in="SourceAlpha" type="matrix" values="0 0 0 0 0 0 0 0 0 0 0 0 0 0 0 0 0 0 127 0" result="hardAlpha"/>
<feOffset dy="4"/>
<feGaussianBlur stdDeviation="2"/>
<feComposite in2="hardAlpha" operator="out"/>
<feColorMatrix type="matrix" values="0 0 0 0 0 0 0 0 0 0 0 0 0 0 0 0 0 0 0.25 0"/>
<feBlend mode="normal" in2="BackgroundImageFix" result="effect1_dropShadow_1411_4756"/>
<feBlend mode="normal" in="SourceGraphic" in2="effect1_dropShadow_1411_4756" result="shape"/>
</filter>
</defs>
</svg>
